<svg xmlns="http://www.w3.org/2000/svg" xmlns:xlink="http://www.w3.org/1999/xlink" version="1.1" x="0px" y="0px" viewBox="0 0 100 125" enable-background="new 0 0 100 100" xml:space="preserve"><path d="M49.831,14.185c-11.014,0-19.939,7.899-19.939,17.645s2.393,43.563,20.334,43.563c17.546,0,19.539-33.818,19.539-43.563  S60.841,14.185,49.831,14.185z M49.703,38.537c-8.658,0-15.674-4.655-15.674-10.398c0-5.739,7.016-10.396,15.674-10.396  s15.678,4.657,15.678,10.396C65.381,33.882,58.36,38.537,49.703,38.537z"/><rect x="38.169" y="10.956" width="1.392" height="6.886"/><path d="M40.891,10.042c0,1.125-0.913,2.039-2.041,2.039c-1.129,0-2.041-0.914-2.041-2.039C36.81,8.913,37.722,8,38.851,8  C39.979,8,40.891,8.913,40.891,10.042z"/><path d="M31.988,33.898c-2.725,0-4.955,2.034-5.31,4.662c-0.332,0.294-0.656,0.604-0.963,0.947  c-3.261,3.657-4.672,9.706-4.025,17.112c-2.639,1.149-4.781,6.55-0.225,9.728c-0.37-1.668,0.414-5.089,2.825-5.459  c1.671-0.466,4.36,0.927,4.36,4.265c1.998-2.003,2.627-8.841-1.412-8.95c-0.475-5.302,0.271-9.674,2.079-12.281  c0.79,0.455,1.694,0.735,2.67,0.735c2.968,0,5.379-2.407,5.379-5.378C37.367,36.307,34.956,33.898,31.988,33.898z"/><path d="M79.642,58.062c-0.135-10.955-3.369-17.285-7.252-20.211c-0.629-2.273-2.688-3.952-5.158-3.952  c-2.977,0-5.384,2.409-5.384,5.38c0,2.971,2.407,5.378,5.384,5.378c1.179,0,2.26-0.391,3.146-1.035  c1.818,2.248,3.479,6.458,3.684,13.647c-4.865-0.204-5.679,7.021-1.008,9.547c-0.392-3.283,0.854-5.373,2.803-5.649  c2.686,0.092,2.591,4.517,2.411,5.935C83.041,64.24,82.937,59.44,79.642,58.062z"/><path d="M37.37,28.908c2.084-1.392,6.401-1.89,8.813-0.808c0.504,0.226,0.818,0.069,0.695-0.469  c-1.414-6.17-9.97-5.037-10.282,0.934C36.567,29.116,36.911,29.214,37.37,28.908z"/><path d="M52.7,28.204c2.279-1.041,6.619-0.842,8.826,0.612c0.461,0.304,0.796,0.2,0.761-0.351  c-0.407-6.319-9.036-6.565-10.297-0.723C51.874,28.282,52.197,28.433,52.7,28.204z"/><ellipse cx="50" cy="89.5" rx="14" ry="2.5"/><text x="0" y="115" fill="#000000" font-size="5px" font-weight="bold" font-family="'Helvetica Neue', Helvetica, Arial-Unicode, Arial, Sans-serif">Created by Rutmer Zijlstra</text><text x="0" y="120" fill="#000000" font-size="5px" font-weight="bold" font-family="'Helvetica Neue', Helvetica, Arial-Unicode, Arial, Sans-serif">from the Noun Project</text></svg>